<svg width="24" height="24" viewBox="0 0 24 24" fill="none" xmlns="http://www.w3.org/2000/svg">
<path fill-rule="evenodd" clip-rule="evenodd" d="M20.853 6.146C20.899 6.192 20.936 6.247 20.961 6.308C20.986 6.368 21 6.433 21 6.5V23.5C21 23.776 20.776 24 20.5 24H3.5C3.224 24 3 23.776 3 23.5V0.5C3 0.224 3.224 0 3.5 0H14.5C14.567 0 14.632 0.014 14.692 0.039C14.753 0.064 14.808 0.101 14.854 0.147L20.853 6.146ZM19.293 6L15 1.707V6H19.293ZM4 23V1H14V6.5C14 6.776 14.224 7 14.5 7H20V23H4ZM12 8H7.5C7.224 8 7 7.776 7 7.5C7 7.224 7.224 7 7.5 7H12C12.276 7 12.5 7.224 12.5 7.5C12.5 7.776 12.276 8 12 8ZM7.5 10C7.224 10 7 10.224 7 10.5C7 10.776 7.224 11 7.5 11H16.5C16.776 11 17 10.776 17 10.5C17 10.224 16.776 10 16.5 10H7.5ZM7 13.5C7 13.224 7.224 13 7.5 13H16.5C16.776 13 17 13.224 17 13.5C17 13.776 16.776 14 16.5 14H7.5C7.224 14 7 13.776 7 13.5ZM7.5 16C7.224 16 7 16.224 7 16.5C7 16.776 7.224 17 7.5 17H16.5C16.776 17 17 16.776 17 16.5C17 16.224 16.776 16 16.5 16H7.5ZM7 19.5C7 19.224 7.224 19 7.5 19H16.5C16.776 19 17 19.224 17 19.5C17 19.776 16.776 20 16.5 20H7.5C7.224 20 7 19.776 7 19.5Z" fill="#3E3832"/>
</svg>
