<?xml version="1.0" encoding="UTF-8"?>
<svg width="16px" height="16px" viewBox="0 0 16 16" version="1.1" xmlns="http://www.w3.org/2000/svg" xmlns:xlink="http://www.w3.org/1999/xlink">
    <!-- Generator: Sketch 62 (91390) - https://sketch.com -->
    <title>endre</title>
    <desc>Created with Sketch.</desc>
    <g id="endre" stroke="none" stroke-width="1" fill="none" fill-rule="evenodd">
        <g id="Fill/01-edition/pencil-2" fill="#0067C5">
            <path d="M1.16866664,11.0826667 L4.91866665,14.8333334 C4.89266665,14.8466667 4.86599999,14.858 4.83733332,14.8646667 L4.83733332,14.8646667 L0.525999968,15.8753334 C0.408666635,15.9026667 0.293333301,15.866 0.213999967,15.7866667 C0.132666633,15.7046667 0.0986666333,15.5866667 0.1253333,15.4746667 L0.1253333,15.4746667 L1.1373333,11.1646667 C1.14399997,11.136 1.15466664,11.1086667 1.16866664,11.0826667 L1.16866664,11.0826667 Z M9.97550421,2.25384644 L13.7467042,6.02504646 L5.39962439,14.3721263 L1.62842437,10.6009263 L9.97550421,2.25384644 Z M10.9177065,1.31088871 L14.6878398,5.08368872 L14.2162398,5.55495539 L10.4461065,1.78215537 L10.9177065,1.31088871 Z M12.804,0.115999967 C13.2493334,0.115999967 13.668,0.288666634 13.9826667,0.604666635 L13.9826667,0.604666635 L15.3966667,2.01799997 C16.0466667,2.66799998 16.0466667,3.72533332 15.3966667,4.37466665 L15.3966667,4.37466665 L15.1606667,4.61066665 L11.3893333,0.83999997 L11.6253333,0.604666635 C11.94,0.289333301 12.3586667,0.115999967 12.804,0.115999967 Z" id="Combined-Shape"></path>
        </g>
    </g>
</svg>