<svg width="20" height="20" viewBox="0 0 20 20" fill="none" xmlns="http://www.w3.org/2000/svg">
<path fill-rule="evenodd" clip-rule="evenodd" d="M16.6667 0V4.16667C18.5076 4.16667 20 5.65905 20 7.5V14.1667H16.6667V20H3.33333V14.1667H0V7.5C0 5.65905 1.49238 4.16667 3.33333 4.16667V0H16.6667ZM15 10H5V18.3333H15V10ZM13.3333 11.6667V13.3333H6.66667V11.6667H13.3333ZM11.6667 15V16.6667H6.66667V15H11.6667ZM16.6667 5.83333H3.33333C2.4547 5.83333 1.73486 6.51323 1.67124 7.37561L1.66667 7.5V12.5H3.33333V8.33333H16.6667V12.5H18.3333V7.5C18.3333 6.62136 17.6534 5.90153 16.7911 5.8379L16.6667 5.83333ZM15 1.66667H5V4.16667H15V1.66667Z" fill="#0067C5"/>
</svg>
