<?xml version="1.0" encoding="UTF-8"?>
<svg version="1.1" width="16px" height="16px" viewBox="0 0 16 16" xmlns="http://www.w3.org/2000/svg">
    <title>Fill/01-edition/bin-1 Copy</title>
    <desc>Created with Sketch.</desc>
    <g fill="none" fill-rule="evenodd">
        <g transform="translate(-912 -2163)" fill="#0067C5">
            <g transform="translate(912 2163)">
                <path d="m15.667 2h-2-2.3333v-1.6667c0-0.184-0.14933-0.33333-0.33333-0.33333h-5.3333c-0.184 0-0.33333 0.14933-0.33333 0.33333v1.6667h-2.3333-2c-0.184 0-0.33333 0.14933-0.33333 0.33333s0.14933 0.33333 0.33333 0.33333h1.6667v13c0 0.184 0.14933 0.33333 0.33333 0.33333h10.667c0.184 0 0.33333-0.14933 0.33333-0.33333v-13h1.6667c0.184 0 0.33333-0.14933 0.33333-0.33333s-0.14933-0.33333-0.33333-0.33333zm-9.6667 10.333c0 0.184-0.14933 0.33333-0.33333 0.33333s-0.33333-0.14933-0.33333-0.33333v-7.3333c0-0.184 0.14933-0.33333 0.33333-0.33333s0.33333 0.14933 0.33333 0.33333v7.3333zm0-11.667h4.6667v1.3333h-4.6667v-1.3333zm2.6667 11.667c0 0.184-0.14933 0.33333-0.33333 0.33333-0.184 0-0.33333-0.14933-0.33333-0.33333v-7.3333c0-0.184 0.14933-0.33333 0.33333-0.33333 0.184 0 0.33333 0.14933 0.33333 0.33333v7.3333zm2.6667 0c0 0.184-0.14933 0.33333-0.33333 0.33333s-0.33333-0.14933-0.33333-0.33333v-7.3333c0-0.184 0.14933-0.33333 0.33333-0.33333s0.33333 0.14933 0.33333 0.33333v7.3333z"/>
            </g>
        </g>
    </g>
</svg>
