<?xml version="1.0" encoding="UTF-8"?>
<svg width="119px" height="90px" version="1.1" viewBox="0 0 119 90" xmlns="http://www.w3.org/2000/svg" xmlns:xlink="http://www.w3.org/1999/xlink">
<title>mennesker/barn/ spedbarn 0-1 år/ adopsjon</title>
<desc>Created with Sketch.</desc>
<defs>
<path id="a" d="m21 7.27v9.73h-21v-9.73c0-2.7836 3.4304-5.9614 5.7273-7.27h9.5455c2.3177 1.3316 5.7273 4.5185 5.7273 7.27z"/>
</defs>
<g fill="none" fill-rule="evenodd">
<g transform="translate(-738 -1033)">
<g transform="translate(738 1033)">
<g id="Group" transform="translate(0 -1.1842)">
<g transform="translate(15.34 1.1842)" fill-rule="nonzero">
<path d="m59.196 52.792c4.4975-0.62461 9.6707 0.23773 15.144 2.8202 9.8996 4.6705 19.431 15.561 28.593 32.671l-4.7e-5 2.46e-5c0.30536 0.57025 0.086211 1.2777-0.48948 1.5802-0.1703 0.089474-0.36013 0.13626-0.5529 0.13626l-40.401-1e-6c-9.9718 0-18.056-8.0072-18.056-17.885 0-0.94382 0.075425-1.8862 0.22557-2.8182 0.54323-3.3721 1.6491-6.3004 3.217-8.7222-1.0111-4.8132-1.085-10.028-0.22162-15.646 1.1273-7.3344 3.3958-13.983 6.8056-19.947-6.189-0.76209-10.981-6.0428-10.981-12.444 0-6.9248 5.6082-12.538 12.526-12.538 6.918 0 12.526 5.6136 12.526 12.538 0 3.743-1.6385 7.1029-4.2367 9.4003-2.1507 3.9955-3.812 8.8727-4.9839 14.632-1.3078 6.4266-0.82811 11.389 0.88391 16.222z" fill="#E7E9E9"/>
<path d="m0.91468 13.837c-0.47469-0.055465-0.84873-0.41239-0.90685-0.86535-0.069885-0.5446 0.33613-1.0402 0.90685-1.1068l41.396-4.8369c0.73082-0.085393 1.4546 0.20386 1.9035 0.76074l3.9501 4.9001c0.30739 0.38132 0.28429 0.91802-0.05485 1.274l-3.895 4.0884c-0.45446 0.47702-1.1232 0.714-1.7938 0.63564l-41.506-4.8497z" fill="#FFBD66"/>
</g>
<path d="m28.32 68.684c11.079 0 20.06-9.4051 20.06-21.007 0-7.7345-6.6867-19.68-20.06-35.835-13.373 16.156-20.06 28.101-20.06 35.835 0 11.602 8.9812 21.007 20.06 21.007z" fill="#78706A" fill-rule="nonzero"/>
<g transform="translate(12.98 26.053)">
<g transform="translate(4.72 27.237)">
<g id="d">
<mask id="b" fill="white">
<use xlink:href="#a"/>
</mask>
<use id="c" fill="#D8A25D" xlink:href="#a"/>
<g fill="#5EAEC7" mask="url(#b)">
<g transform="translate(-39.261 -52.889)">
<polygon points="0 113 110 113 110 0 0 0"/>
</g>
</g>
</g>
</g>
<path d="m1.2069 13.328c0.45417-7.4371 6.6082-13.328 14.133-13.328 7.525 0 13.679 5.8907 14.133 13.328 0.7202 0.40553 1.2069 1.1792 1.2069 2.0669v2.3684c0 1.308-1.0566 2.3684-2.36 2.3684-0.034487 0-0.068802-7.423e-4 -0.10293-0.002212-1.5913 3.4812-4.543 6.2058-8.1721 7.4884-0.19331 2.438-2.2259 4.3559-4.705 4.3559s-4.5117-1.9179-4.705-4.3559c-3.6291-1.2826-6.5808-4.0072-8.1721-7.4884-0.034127 0.0014697-0.068441 0.002212-0.10293 0.002212-1.3034 0-2.36-1.0604-2.36-2.3684v-2.3684c-1.0833e-16 -0.88774 0.48667-1.6614 1.2069-2.0669z" fill="#E7E5E2"/>
<g transform="translate(10.62)" fill="#78706A" fill-rule="nonzero">
<path transform="translate(2.7054 3.19) rotate(-48) translate(-2.7054 -3.19)" d="m3.2444 1.4206c0.2338-0.11723 0.51773-0.023138 0.63417 0.21016 0.11645 0.2333 0.021313 0.51746-0.21249 0.63469-0.29128 0.14605-0.33715 0.299-0.33852 1.073-0.0014264 0.8052-0.43495 1.3827-1.2232 1.6468-0.24792 0.083045-0.51554-0.050302-0.59773-0.29784-0.082198-0.24754 0.052147-0.51553 0.30007-0.59857 0.40842-0.13681 0.57427-0.35774 0.57496-0.74867 0.0019646-1.109 0.13572-1.555 0.86269-1.9195z"/>
<path transform="translate(4.7072 3.1752) rotate(-27) translate(-4.7072 -3.1752)" d="m5.245 1.4038c0.23347-0.1173 0.51708-0.022995 0.63346 0.21063s0.021457 0.5181-0.21202 0.6354c-0.29087 0.14613-0.33664 0.29925-0.33775 1.0742-0.0011604 0.80619-0.43396 1.3843-1.2211 1.6484-0.24759 0.083065-0.51492-0.050535-0.5971-0.2984-0.082178-0.24787 0.051914-0.51614 0.2995-0.59921 0.40787-0.13684 0.57344-0.35799 0.574-0.7494 0.0015982-1.1104 0.13504-1.5568 0.861-1.9216z"/>
<path transform="translate(6.709 3.1604) rotate(-9) translate(-6.709 -3.1604)" d="m7.2449 1.3884c0.23322-0.11716 0.51673-0.022548 0.63324 0.21133 0.11651 0.23388 0.021903 0.51846-0.21131 0.63562-0.29055 0.14597-0.33615 0.29915-0.33658 1.0746-4.4321e-4 0.80671-0.43245 1.3848-1.2189 1.6484-0.24735 0.082898-0.51463-0.051028-0.59697-0.29913s0.051421-0.51643 0.29878-0.59933c0.40749-0.13656 0.57275-0.35771 0.57297-0.74938 6.1045e-4 -1.1111 0.13357-1.5577 0.85873-1.922z"/>
</g>
<g transform="translate(5.9 10.658)">
<g transform="translate(0 1)">
<path d="m5.7 8.9997c0 1.6571-1.2757 3.0003-2.8494 3.0003-1.5743 0-2.8506-1.3432-2.8506-3.0003 0-1.6564 1.2763-2.9997 2.8506-2.9997 1.5737 0 2.8494 1.3432 2.8494 2.9997" fill="#E8CCC8"/>
<path transform="translate(8.4989 11.944) rotate(23) translate(-8.4989 -11.944)" d="m8.5532 13.446c-0.62551-0.011747-1.1652-0.43594-1.373-1.0178l-0.11776-1.9863 2.8729 0.05395-0.045786 1.9832c-0.1867 0.57447-0.71113 0.97867-1.3364 0.96693z" fill="#FA96A0"/>
<path d="m19 8.9997c0 1.6571-1.2757 3.0003-2.8494 3.0003-1.5743 0-2.8506-1.3432-2.8506-3.0003 0-1.6564 1.2763-2.9997 2.8506-2.9997 1.5737 0 2.8494 1.3432 2.8494 2.9997" fill="#E8CCC8"/>
<path d="m10.283 4.5337c-0.25673 0.05679-0.50858-0.11624-0.56253-0.38648-0.053951-0.27024 0.11043-0.53535 0.36716-0.59214 0.63874-0.14129 1.1727-0.032585 1.4667 0.48651 0.57115 1.0099 0.37216 2.1737-0.52844 2.9798-0.52348 0.46838-1.2582 0.63648-1.7715 0.30968-0.22447-0.14292-0.29637-0.45032-0.1606-0.6866 0.13577-0.23628 0.4278-0.31197 0.65227-0.16905 0.11236 0.071538 0.42255 5.7123e-4 0.66448-0.2159 0.55151-0.49365 0.65873-1.1207 0.32763-1.7061-0.031152-0.055004-0.16885-0.083036-0.45522-0.019689z" fill="#59514B" fill-rule="nonzero"/>
<path transform="translate(15.2 1.9999) scale(1 -1) translate(-15.2 -1.9999)" d="m12.839 1.1213c-0.063626-0.2679 0.091111-0.53936 0.34561-0.60634 0.2545-0.066974 0.5124 0.095906 0.57602 0.3638 0.26851 1.1306 0.73468 1.6213 1.4392 1.6213s1.1707-0.49071 1.4392-1.6213c0.063626-0.2679 0.32152-0.43078 0.57602-0.3638 0.2545 0.066974 0.40924 0.33844 0.34561 0.60634-0.36483 1.5361-1.1653 2.3787-2.3608 2.3787s-1.996-0.84263-2.3608-2.3787z" fill="#635E59" fill-rule="nonzero"/>
<path d="m4.2816 3.9966c-1.3093 0.090261-1.6758-1.6567-1.2813-2.7958 0.074197-0.21708 0.50762-1.2008 1.2749-1.2008 0.7664 0 1.1048 0.53814 1.1519 0.63069 0.56372 1.1117 0.28774 3.2688-1.1455 3.3659" fill="#635E59"/>
<path transform="translate(9.5 10.5) scale(1 -1) rotate(180) translate(-9.5 -10.5)" d="m7.1751 10.224c-0.11732-0.24699-0.022213-0.54733 0.21243-0.67082 0.23464-0.12349 0.51996-0.023382 0.63728 0.22361 0.22783 0.47964 0.69137 0.72361 1.4751 0.72361 0.78377 0 1.2473-0.24397 1.4751-0.72361 0.11732-0.24699 0.40264-0.3471 0.63728-0.22361 0.23464 0.12349 0.32975 0.42383 0.21243 0.67082-0.40551 0.8537-1.2086 1.2764-2.3249 1.2764-1.1162 0-1.9193-0.4227-2.3249-1.2764z" fill="#59514B" fill-rule="nonzero"/>
</g>
</g>
</g>
<g transform="translate(34.22 50.921)" fill="#E7E5E2">
<path d="m7.9078 2.9601v2.8095l-0.0018445-0.012929h-0.2361v-4.224c0-0.44477-0.34308-0.80549-0.76609-0.80549s-0.7667 0.36073-0.7667 0.80549v4.224h-0.29082v-4.9513c0-0.44412-0.34308-0.80549-0.76609-0.80549s-0.76609 0.36137-0.76609 0.80549v4.9513h-0.29082v-3.9997c0-0.44477-0.34308-0.80614-0.7667-0.80614-0.42301 0-0.76609 0.36137-0.76609 0.80614v5.9772c-0.13465-0.027151-0.30803-0.093091-0.41194-0.26052-0.18753-0.30448-0.10883-0.22497-0.3978-0.98909-0.28897-0.76476-0.55766-1.3026-1.2039-1.1326-0.73842 0.19394-0.46912 1.4351-0.18753 3.0377 0.18753 1.066 0.82204 2.1236 1.2985 2.913 0.47589 0.78804 1.3846 1.9394 1.7019 1.9394l0.071936 8.0737h5.0349v-7.6625c0-0.46093 0.42239-0.62254 0.42239-0.62254 0.35353-0.12865 0.62099-0.71693 0.62099-1.5166v-8.554c0-0.44477-0.34308-0.80549-0.7667-0.80549-0.42239 0-0.76547 0.36073-0.76547 0.80549z"/>
</g>
<g fill="#C6C2BF" fill-rule="nonzero">
<rect x="24.78" y="5.9211" width="7.08" height="14.211" rx="3"/>
<path transform="translate(18.342 6.5795) rotate(20) translate(-18.342 -6.5795)" d="m27.787 8.5426c-3.3967-3.6734-6.5143-5.5117-9.3529-5.5149s-6.018 0.91047-9.5382 2.7412c3.0718 2.4179 5.9697 3.8268 8.6936 4.2267 2.7239 0.39995 6.123-0.084376 10.197-1.453z"/>
<path transform="translate(38.401 6.5795) scale(-1 1) rotate(20) translate(-38.401 -6.5795)" d="m47.847 8.5426c-3.3967-3.6734-6.5143-5.5117-9.3529-5.5149-2.8386-0.003254-6.018 0.91047-9.5382 2.7412 3.0718 2.4179 5.9697 3.8268 8.6936 4.2267 2.7239 0.39995 6.123-0.084376 10.197-1.453z"/>
<path d="m28.32 91.184c-15.641 0-28.32-13.324-28.32-29.76 0-10.957 9.44-27.879 28.32-50.767 18.88 22.887 28.32 39.809 28.32 50.767 0 16.436-12.679 29.76-28.32 29.76zm0-24.868c10.427 0 18.88-8.8173 18.88-19.694 0-7.2511-6.2933-18.45-18.88-33.596-12.587 15.146-18.88 26.344-18.88 33.596 0 10.877 8.4529 19.694 18.88 19.694z"/>
</g>
</g>
</g>
</g>
</g>
</svg>
