<?xml version="1.0" encoding="UTF-8"?>
<svg version="1.1" viewBox="0 0 148 148" xmlns="http://www.w3.org/2000/svg" xmlns:xlink="http://www.w3.org/1999/xlink">
<title>group-7-copy-8 (1)</title>
<desc>Created with Sketch.</desc>
<defs>
<circle id="g" cx="74" cy="74" r="74"/>
<path id="h" d="m34.394 78.116c-3.6967 1.3418-9.8975 4.2757-14.588 8.7298-13.712-3.0514-19.806-10.302-19.806-10.302s12.633-12.322 12.641-33.874v-0.022853c0-25.236 13.624-42.647 36.068-42.647 22.448 0 36.073 17.412 36.073 42.647h0.080529c0 21.567 12.642 33.896 12.642 33.896s-6.093 7.2509-19.805 10.298l-0.020676 0.0043529c-4.5303-4.1222-11.102-7.301-14.677-8.6449l0.004353-0.0010882-0.14147-1.5975 0.076176-0.13276c6.746-4.3149 11.979-11.583 14.503-20.367 0.30906 0.17194 0.65838 0.26879 1.0273 0.26879 1.2624 0 2.2853-1.1274 2.2853-2.5247v-10.186c0-1.1938-0.74871-2.1928-1.7553-2.4572l-0.0032647-0.041353c-31.893 3.5585-43.38-18.307-44.324-18.308 0 0-10.592 7.6176-15.653 16.675 0 0-0.77265 1.7085-0.77482 1.7673-0.86732 0.35803-1.4854 1.2809-1.4854 2.3658v10.186c0 1.3962 1.0251 2.5236 2.2853 2.5236 0.27968 0 0.54738-0.054412 0.79441-0.15562 2.5519 8.7875 7.819 16.048 14.596 20.335l0.025029 0.052235-0.065294 1.5137h-0.0032647z"/>
<path id="i" d="m23.857 0.37871-0.0021765-0.12188c0 6.8842 6.2824 14.026 14.033 14.026 7.671 0 13.903-6.9963 14.031-13.815 4.0156 1.0991 9.9802 4.1342 14.941 9.1194 4.9602 4.9841 8.9159 12.48 8.9159 18.298v34.961h-75.776v-34.961c0-5.8057 3.8719-13.29 8.7418-18.268 5.0298-5.1419 11.124-8.2184 15.116-9.238z"/>
</defs>
<g fill="none" fill-rule="evenodd">
<g fill="#826BA1" fill-rule="nonzero">
<circle cx="74" cy="74" r="74"/>
</g>
<mask id="e" fill="white">
<use xlink:href="#g"/>
</mask>
<g id="Group" mask="url(#e)">
<g transform="translate(26.118 19.588)">
<path d="m49.491 7.5088c16.288 0 29.614 14.865 31.095 33.808 1.0643 0.51582 1.7934 1.6704 1.7934 2.997v10.186c0 1.7357-1.2515 3.1787-2.8664 3.2799l-0.18065 0.0054412c-0.17956 0-0.35585-0.016324-0.52671-0.048971-2.6118 8.4828-7.7286 15.523-14.285 19.831l0.33518 3.7773-0.0010882 0.15344-3.5455 31.134h-22.481l-0.093588-0.65403-4.3453-30.534 0.15997-3.8197c-6.5904-4.2974-11.737-11.35-14.365-19.854l-0.089235 0.0087058-0.18065 0.0054412c-1.6998 0-3.0471-1.4854-3.0471-3.2865v-10.186c0-1.2058 0.60506-2.2722 1.517-2.8446 1.4212-19.015 14.774-33.959 31.106-33.959z" fill="#E7E5E2" fill-rule="nonzero"/>
<g id="j" transform="translate(35.912 41.353)" fill="#59514B" fill-rule="nonzero">
<path d="m2.479 7.6122c-1.9686 0.15779-2.5193-2.9295-1.9262-4.946 0.111-0.38197 0.76285-2.1221 1.9164-2.1221s1.6617 0.95112 1.7325 1.1144c0.84774 1.9654 0.43094 5.7796-1.7227 5.9526m22.833 0.0010882c1.9675 0.15779 2.5193-2.9295 1.9262-4.946-0.11209-0.38197-0.76394-2.1221-1.9175-2.1221-1.1524 0-1.6606 0.95112-1.7314 1.1144-0.84882 1.9654-0.43203 5.7796 1.7216 5.9526"/>
<path d="m14.626 10.654c1.1764-0.19915 1.9806-0.074 2.269 0.31559 1.0861 1.4724 0.73891 3.0296-1.1263 4.3083-0.97941 0.67144-2.3288 0.90868-3.0438 0.55935-0.34932-0.16976-0.75741 0.004353-0.91194 0.3885-0.15562 0.38524 0.0032647 0.83576 0.35259 1.0066 1.1807 0.57568 2.9959 0.25682 4.3344-0.66056 2.5334-1.7368 3.1134-4.3344 1.4669-6.5653-0.69647-0.94132-1.9294-1.1339-3.552-0.85971-0.37762 0.065294-0.63662 0.45379-0.57894 0.87059 0.058765 0.41571 0.41135 0.70082 0.78897 0.63771l0.0010883-0.0010883zm8.5122 10.117c-0.068559 0.14582-0.22744 0.42332-0.48209 0.78897-0.46879 0.67008-1.0165 1.2813-1.6313 1.8206-1.9599 1.7259-4.5118 2.7239-7.7591 2.6324-3.1668-0.089235-5.7078-1.0719-7.6993-2.6564-0.67605-0.53446-1.2861-1.1475-1.8174-1.8261-0.19951-0.24866-0.37995-0.51203-0.53976-0.78788-0.18718-0.34824-0.64641-0.49188-1.0262-0.32103-0.37979 0.17194-0.5365 0.59309-0.34932 0.94132 0.11318 0.20894 0.33191 0.55174 0.66709 0.98268 0.54956 0.70735 1.233 1.4136 2.0611 2.072 2.2483 1.788 5.1212 2.9001 8.6569 2.9992 3.6804 0.10338 6.6241-1.048 8.8691-3.0242 0.70134-0.61497 1.3261-1.3121 1.8609-2.0764 0.29926-0.43203 0.49515-0.77374 0.59418-0.98268 0.16976-0.35585-0.0076177-0.76938-0.39503-0.925-0.3885-0.15562-0.84012 0.0076177-1.0099 0.36238z"/>
</g>
<g fill="none" fill-rule="evenodd">
<g transform="translate(.87059 .65294)">
<g fill="#F6B873" fill-rule="nonzero">
<path d="m34.394 78.116c-3.6967 1.3418-9.8975 4.2757-14.588 8.7298-13.712-3.0514-19.806-10.302-19.806-10.302s12.633-12.322 12.641-33.874v-0.022853c0-25.236 13.624-42.647 36.068-42.647 22.448 0 36.073 17.412 36.073 42.647h0.080529c0 21.567 12.642 33.896 12.642 33.896s-6.093 7.2509-19.805 10.298l-0.020676 0.0043529c-4.5303-4.1222-11.102-7.301-14.677-8.6449l0.004353-0.0010882-0.14147-1.5975 0.076176-0.13276c6.746-4.3149 11.979-11.583 14.503-20.367 0.30906 0.17194 0.65838 0.26879 1.0273 0.26879 1.2624 0 2.2853-1.1274 2.2853-2.5247v-10.186c0-1.1938-0.74871-2.1928-1.7553-2.4572l-0.0032647-0.041353c-31.893 3.5585-43.38-18.307-44.324-18.308 0 0-10.592 7.6176-15.653 16.675 0 0-0.77265 1.7085-0.77482 1.7673-0.86732 0.35803-1.4854 1.2809-1.4854 2.3658v10.186c0 1.3962 1.0251 2.5236 2.2853 2.5236 0.27968 0 0.54738-0.054412 0.79441-0.15562 2.5519 8.7875 7.819 16.048 14.596 20.335l0.025029 0.052235-0.065294 1.5137h-0.0032647z"/>
</g>
<mask fill="white">
<use xlink:href="#h"/>
</mask>
</g>
<g transform="translate(11.971 77.727)" fill-rule="nonzero">
<g fill="#D8A25D">
<path d="m23.857 0.37871-0.0021765-0.12188c0 6.8842 6.2824 14.026 14.033 14.026 7.671 0 13.903-6.9963 14.031-13.815 4.0156 1.0991 9.9802 4.1342 14.941 9.1194 4.9602 4.9841 8.9159 12.48 8.9159 18.298v34.961h-75.776v-34.961c0-5.8057 3.8719-13.29 8.7418-18.268 5.0298-5.1419 11.124-8.2184 15.116-9.238z"/>
</g>
<mask id="f" fill="white">
<use xlink:href="#i"/>
</mask>
<g fill="#453B43" mask="url(#f)">
<g transform="translate(-50.059 -40.265)">
<polygon points="0 142.38 176.07 142.38 176.07 0 0 0"/>
</g>
</g>
</g>
</g>
</g>
</g>
</g>
</svg>
